<svg width="1148" height="1177" viewBox="0 0 1148 1177" fill="none" xmlns="http://www.w3.org/2000/svg">
<path d="M648.5 1150.49L792 760.993M526.5 859.993V1150.49" stroke="white" stroke-width="40" stroke-linecap="square"/>
<path d="M1052.97 246.893C1042.15 244.698 1031.59 251.695 1029.4 262.52C1027.2 273.345 1034.2 283.9 1045.03 286.095L1049 266.494L1052.97 246.893ZM973.75 503.994L961.31 488.334L959.347 489.893L957.83 491.888L973.75 503.994ZM1021.44 491.654L1037.1 479.214L1012.22 447.893L996.56 460.333L1009 475.993L1021.44 491.654ZM934.439 233.057L936.003 213.118L896.125 209.991L894.561 229.93L914.5 231.493L934.439 233.057ZM968.639 367.924L978.569 385.285L1013.29 365.425L1003.36 348.064L986 357.994L968.639 367.924ZM818.5 251.994L822.01 232.305L809.722 230.114L802.355 240.19L818.5 251.994ZM686 72.4942L669.116 61.7732L663.609 70.4457L667.451 79.9736L686 72.4942ZM267.5 786.494L248.78 779.455L244.838 789.939L251.717 798.778L267.5 786.494ZM175.5 627.493H155.5V667.493H175.5V647.493V627.493ZM413.074 667.431L433.012 665.857L429.864 625.981L409.926 627.555L411.5 647.493L413.074 667.431ZM955.5 527.994L967.655 543.876L969.792 542.241L971.42 540.1L955.5 527.994ZM857.782 602.778L845.627 586.896L857.782 602.778ZM857.417 603.34L837.964 598.696L857.417 603.34ZM679.549 507.969L694.059 521.734L679.549 507.969ZM679.745 506.891L698.164 499.098L679.745 506.891ZM643.878 547.17L656.087 531.329L643.878 547.17ZM643.763 545.69L658.272 559.455L643.763 545.69ZM626.715 680.748L640.037 695.666L626.715 680.748ZM721.11 606.693L708.902 622.535L721.11 606.693ZM448.843 838.145L464.662 825.907L448.843 838.145ZM450.3 838.279L463.621 853.197L450.3 838.279ZM428.376 993.191L412.593 1005.48L428.376 993.191ZM429.792 993.356L417.249 977.778L429.792 993.356ZM663.846 469.311L645.426 477.104L663.846 469.311ZM664.279 468.048L654.329 450.699L664.279 468.048ZM745.012 353.775L728.721 342.173L745.012 353.775ZM745.15 355.091L758.678 340.361L745.15 355.091ZM973.75 503.994L971.983 523.916C1025.26 528.642 1066.82 516.588 1096.44 493.008C1125.93 469.53 1141.45 436.307 1145.86 402.659C1150.26 369.18 1143.84 334.262 1128.32 305.775C1112.75 277.213 1087.19 253.83 1052.97 246.893L1049 266.494L1045.03 286.095C1065.06 290.158 1081.88 304.149 1093.19 324.916C1104.55 345.757 1109.53 372.12 1106.2 397.454C1102.9 422.618 1091.59 445.739 1071.52 461.714C1051.59 477.587 1020.87 488.096 975.517 484.072L973.75 503.994ZM973.75 503.994L986.19 519.655L1021.44 491.654L1009 475.993L996.56 460.333L961.31 488.334L973.75 503.994ZM921 285.045L940.43 280.306C937.346 267.661 935.704 262.543 934.684 256.198C933.831 250.899 933.514 244.847 934.439 233.057L914.5 231.493L894.561 229.93C893.486 243.64 893.669 253.088 895.191 262.552C896.546 270.97 899.154 279.877 901.57 289.784L921 285.045ZM986 357.994L1003.36 348.064C982.454 311.511 960.693 286.075 931.519 268.034L921 285.045L910.481 302.055C932.169 315.467 949.789 334.966 968.639 367.924L986 357.994ZM921 285.045L931.519 268.034C902.143 249.869 866.992 240.324 822.01 232.305L818.5 251.994L814.99 271.684C858.852 279.503 887.794 288.026 910.481 302.055L921 285.045ZM686 72.4942L702.884 83.2153C728.684 42.5846 775.759 31.8909 818.755 45.5543C861.791 59.23 896 95.9356 896 145.494H916H936C936 75.0514 886.959 25.2569 830.87 7.43283C774.741 -10.4036 706.816 2.40306 669.116 61.7732L686 72.4942ZM779.75 304.994L798.299 297.515L704.549 65.0149L686 72.4942L667.451 79.9736L761.201 312.473L779.75 304.994ZM818.5 251.994L802.355 240.19L763.605 293.19L779.75 304.994L795.895 316.798L834.645 263.798L818.5 251.994ZM779.75 304.994L763.459 293.393L728.721 342.173L745.012 353.775L761.304 365.376L796.041 316.596L779.75 304.994ZM267.5 786.494L286.22 793.533C313.897 719.925 263.513 627.493 175.5 627.493V647.493V667.493C231.487 667.493 268.103 728.062 248.78 779.455L267.5 786.494ZM267.5 786.494L251.717 798.778L412.593 1005.48L428.376 993.191L444.159 980.907L283.283 774.21L267.5 786.494ZM355.5 717.494L375.466 716.337C373.919 689.64 388.743 669.352 413.074 667.431L411.5 647.493L409.926 627.555C358.257 631.635 333.081 676.347 335.534 718.652L355.5 717.494ZM355.5 717.494L343.159 701.755L255.159 770.755L267.5 786.494L279.841 802.233L367.841 733.233L355.5 717.494ZM721.5 680.494V660.494H627.382V680.494V700.494H721.5V680.494ZM721.5 680.494H741.5V607.486H721.5H701.5V680.494H721.5ZM721.11 606.693L733.319 590.852L656.087 531.329L643.878 547.17L631.669 563.011L708.902 622.535L721.11 606.693ZM643.763 545.69L658.272 559.455L694.059 521.734L679.549 507.969L665.04 494.204L629.253 531.925L643.763 545.69ZM679.745 506.891L698.164 499.098L682.265 461.518L663.846 469.311L645.426 477.104L661.326 514.684L679.745 506.891ZM664.279 468.048L674.229 485.397C728.353 454.356 755.053 430.015 785.153 388.787L769 376.994L752.847 365.201C726.353 401.489 704.039 422.189 654.329 450.699L664.279 468.048ZM769 376.994L756.415 392.538L942.915 543.538L955.5 527.994L968.085 512.45L781.585 361.45L769 376.994ZM448.843 838.145L464.662 825.907L371.319 705.256L355.5 717.494L339.681 729.732L433.025 850.383L448.843 838.145ZM857.782 602.778L869.937 618.661L967.655 543.876L955.5 527.994L943.345 512.111L845.627 586.896L857.782 602.778ZM626.715 680.748L613.394 665.83L436.979 823.361L450.3 838.279L463.621 853.197L640.037 695.666L626.715 680.748ZM839 680.494L858.453 685.138L876.871 607.984L857.417 603.34L837.964 598.696L819.547 675.85L839 680.494ZM856.5 680.494V660.494H839V680.494V700.494H856.5V680.494ZM745.15 355.091L731.622 369.822L755.472 391.724L769 376.994L782.528 362.263L758.678 340.361L745.15 355.091ZM857.5 897.494L838.655 890.796L742.155 1162.3L761 1168.99L779.845 1175.69L876.345 904.192L857.5 897.494ZM955.5 527.994L971.42 540.1L989.67 516.1L973.75 503.994L957.83 491.888L939.58 515.888L955.5 527.994ZM857.5 897.494H877.5V681.494H857.5H837.5V897.494H857.5ZM839 680.494V660.494H721.5V680.494V700.494H839V680.494ZM429.792 993.356L442.334 1008.93L539.043 931.073L526.5 915.494L513.957 899.916L417.249 977.778L429.792 993.356ZM857.5 1168.99H877.5V897.494H857.5H837.5V1168.99H857.5ZM856.5 680.494V700.494C846.006 700.494 837.5 691.987 837.5 681.494H857.5H877.5C877.5 669.896 868.098 660.494 856.5 660.494V680.494ZM857.782 602.778L845.627 586.896C841.792 589.831 839.085 593.998 837.964 598.696L857.417 603.34L876.871 607.984C875.856 612.234 873.408 616.005 869.937 618.661L857.782 602.778ZM679.549 507.969L694.059 521.734C699.806 515.676 701.418 506.789 698.164 499.098L679.745 506.891L661.326 514.684C658.382 507.726 659.84 499.685 665.04 494.204L679.549 507.969ZM643.878 547.17L656.087 531.329C665.007 538.204 666.023 551.285 658.272 559.455L643.763 545.69L629.253 531.925C620.686 540.955 621.81 555.413 631.669 563.011L643.878 547.17ZM627.382 680.494V660.494C622.222 660.494 617.243 662.394 613.394 665.83L626.715 680.748L640.037 695.666C636.555 698.776 632.05 700.494 627.382 700.494V680.494ZM721.5 607.486H741.5C741.5 600.973 738.478 594.828 733.319 590.852L721.11 606.693L708.902 622.535C704.234 618.938 701.5 613.378 701.5 607.486H721.5ZM448.843 838.145L433.025 850.383C440.478 860.017 454.536 861.31 463.621 853.197L450.3 838.279L436.979 823.361C445.199 816.021 457.919 817.191 464.662 825.907L448.843 838.145ZM428.376 993.191L412.593 1005.48C419.8 1014.74 433.195 1016.29 442.334 1008.93L429.792 993.356L417.249 977.778C425.518 971.121 437.638 972.53 444.159 980.907L428.376 993.191ZM663.846 469.311L682.265 461.518C686.118 470.625 682.322 480.756 674.229 485.397L664.279 468.048L654.329 450.699C645.359 455.843 641.179 467.065 645.426 477.104L663.846 469.311ZM745.012 353.775L728.721 342.173C722.576 350.802 723.82 362.656 731.622 369.822L745.15 355.091L758.678 340.361C765.738 346.843 766.863 357.569 761.304 365.376L745.012 353.775Z" fill="white"/>
<path d="M20 566.493H568.5" stroke="white" stroke-width="40" stroke-linecap="square"/>
<path d="M44 547.493C103.87 467.855 166 419.993 293.5 409.994M293.5 409.994C314 407.668 332 390.493 332 369.493C332 348.493 314.5 332.493 293.5 332.494C272.5 332.494 255 347.993 255 369.493C255 390.993 273 406.971 293.5 409.994ZM293.5 409.994C418 415.493 494.5 475.493 540 546.993" stroke="white" stroke-width="40" stroke-linecap="square"/>
<path d="M1029.24 252.58C1023.21 261.836 1025.83 274.226 1035.09 280.254C1044.34 286.281 1056.73 283.663 1062.76 274.407L1046 263.494L1029.24 252.58ZM1046 263.494L1062.76 274.407C1085.87 238.919 1094.51 203.838 1091.55 171.516C1088.6 139.314 1074.29 111.412 1054.15 89.9366C1014.74 47.9223 949.653 27.5795 896.533 50.649L904.5 68.9937L912.467 87.3384C946.847 72.4076 994.506 84.8148 1024.97 117.301C1039.77 133.075 1049.68 152.861 1051.72 175.159C1053.74 197.337 1048.13 223.568 1029.24 252.58L1046 263.494Z" fill="white"/>
<path d="M603.5 818.993V819.493M603.5 915.993V916.993M603.5 1013.49V1014.49" stroke="white" stroke-width="40" stroke-linecap="square"/>
</svg>
